<?xml version="1.0" encoding="UTF-8" standalone="no"?>
<svg
   xmlns:dc="http://purl.org/dc/elements/1.1/"
   xmlns:cc="http://creativecommons.org/ns#"
   xmlns:rdf="http://www.w3.org/1999/02/22-rdf-syntax-ns#"
   xmlns:svg="http://www.w3.org/2000/svg"
   xmlns="http://www.w3.org/2000/svg"
   xmlns:sodipodi="http://sodipodi.sourceforge.net/DTD/sodipodi-0.dtd"
   xmlns:inkscape="http://www.inkscape.org/namespaces/inkscape"
   inkscape:version="1.0 (6e3e5246a0, 2020-05-07)"
   sodipodi:docname="bank.svg"
   id="svg22"
   style="clip-rule:evenodd;fill-rule:evenodd;stroke-linejoin:round;stroke-miterlimit:1.41421"
   version="1.1"
   viewBox="0 0 37.602001 37.582001"
   height="37.582001"
   width="37.602001">
  <style
     id="style853"></style>
  <metadata
     id="metadata28">
    <rdf:RDF>
      <cc:Work
         rdf:about="">
        <dc:format>image/svg+xml</dc:format>
        <dc:type
           rdf:resource="http://purl.org/dc/dcmitype/StillImage" />
      </cc:Work>
    </rdf:RDF>
  </metadata>
  <defs
     id="defs26">
    <clipPath
       id="_clip1">
      <rect
         x="0"
         y="0"
         width="38"
         height="39"
         id="rect2" />
    </clipPath>
    <clipPath
       id="_clip2">
      <rect
         x="0"
         y="0.417"
         width="38"
         height="38"
         id="rect5" />
    </clipPath>
  </defs>
  <sodipodi:namedview
     inkscape:current-layer="svg22"
     inkscape:window-maximized="0"
     inkscape:window-y="18"
     inkscape:window-x="0"
     inkscape:cy="10.408217"
     inkscape:cx="18.19524"
     inkscape:zoom="25.963511"
     showgrid="false"
     id="namedview24"
     inkscape:window-height="1041"
     inkscape:window-width="1916"
     inkscape:pageshadow="2"
     inkscape:pageopacity="0"
     guidetolerance="10"
     gridtolerance="10"
     objecttolerance="10"
     borderopacity="1"
     bordercolor="#666666"
     pagecolor="#ffffff" />
  <path
     id="path922"
     d="M 1.3786118,11.028338 C 0.99859206,10.935818 0.67426166,10.734901 0.43354916,10.442875 -0.12280894,9.767917 -0.08882782,8.90738 0.51887596,8.282062 0.81117646,7.98129 1.6124832,7.60466 9.6209488,4.003912 17.405376,0.503896 18.446238,0.055396 18.78766,0.054042 c 0.344406,-0.0014 1.306118,0.412475 9.08968,3.911435 4.787488,2.152129 8.830253,3.994283 8.983923,4.093677 0.363873,0.235352 0.684098,0.865842 0.681799,1.342394 -0.0036,0.743846 -0.58845,1.460311 -1.32018,1.617239 -0.438629,0.09407 -34.4587966,0.103394 -34.8442702,0.0096 z"
     style="fill:#000000;stroke:none;stroke-width:0.0232634;stroke-linecap:round;stroke-linejoin:round;stroke-miterlimit:2.6;stroke-dasharray:none;stroke-opacity:1;paint-order:fill markers stroke" />
  <path
     id="path924"
     d="M 3.4074864,33.040251 C 3.2523529,32.998939 2.9789981,32.839803 2.8000313,32.686613 1.5603326,31.625478 2.3383909,29.741914 4.0164213,29.741914 H 4.3443124 V 22.038796 14.335677 H 4.0722291 c -0.9656421,0 -1.4054224,-1.013515 -0.6596762,-1.520286 0.1891004,-0.128502 1.0153332,-0.136982 15.2092681,-0.156097 10.419727,-0.01403 15.102311,0.0048 15.313462,0.06169 0.516844,0.139172 0.775693,0.797861 0.47964,1.220535 -0.149726,0.213764 -0.549418,0.394159 -0.873317,0.394159 h -0.233568 v 7.69242 7.69242 l 0.462218,0.04191 c 1.519179,0.137754 2.159158,1.800241 1.10053,2.858869 -0.546676,0.546676 0.60303,0.510863 -16.116365,0.502027 -9.5160792,-0.005 -15.1687642,-0.03563 -15.3469346,-0.08307 z M 12.817743,22.038796 V 14.335677 H 10.237198 7.6566534 v 7.703119 7.703118 h 2.5805446 2.580545 z m 8.550462,0 V 14.335677 H 18.78766 16.207115 v 7.703119 7.703118 h 2.580545 2.580545 z m 8.550461,0 v -7.703119 h -2.580544 -2.580545 v 7.703119 7.703118 h 2.580545 2.580544 z"
     style="fill:#000000;stroke:none;stroke-width:0.0232634;stroke-linecap:round;stroke-linejoin:round;stroke-miterlimit:2.6;stroke-dasharray:none;stroke-opacity:1;paint-order:fill markers stroke" />
  <g
     transform="translate(0,-0.417)"
     style="clip-rule:evenodd;fill-rule:evenodd;stroke-linejoin:round;stroke-miterlimit:1.41421;fill:#000000"
     id="g20">
    <g
       style="fill:#000000"
       id="g18">
      <clipPath
         id="clipPath875">
        <rect
           x="0"
           y="0"
           width="38"
           height="39"
           id="rect873" />
      </clipPath>
      <g
         style="fill:#000000"
         clip-path="url(#_clip1)"
         id="g16">
        <clipPath
           id="clipPath879">
          <rect
             x="0"
             y="0.417"
             width="38"
             height="38"
             id="rect877" />
        </clipPath>
        <g
           style="fill:#000000"
           clip-path="url(#_clip2)"
           id="g14">
          <path
             d="M 35.875,34.581 H 1.707 C 0.766,34.581 0,35.347 0,36.292 c 0,0.942 0.766,1.707 1.707,1.707 h 34.168 c 0.945,0 1.711,-0.765 1.711,-1.707 -0.004,-0.945 -0.766,-1.711 -1.711,-1.711 z"
             style="fill:#000000;fill-rule:nonzero"
             id="path8" />
          <path
             d="m 3.844,30.14 c -0.946,0 -1.707,0.765 -1.707,1.707 0,0.945 0.761,1.711 1.707,1.711 h 29.894 c 0.946,0 1.711,-0.766 1.711,-1.711 0,-0.942 -0.765,-1.707 -1.711,-1.707 H 33.312 V 14.765 h 0.426 c 0.473,0 0.856,-0.383 0.856,-0.856 0,-0.468 -0.383,-0.851 -0.856,-0.851 H 3.844 c -0.473,0 -0.852,0.383 -0.852,0.851 0,0.473 0.379,0.856 0.852,0.856 H 4.27 V 30.14 Z M 29.895,14.765 V 30.14 H 24.77 V 14.765 Z m -8.54,0 V 30.14 H 16.23 V 14.765 Z m -13.667,0 h 5.124 V 30.14 H 7.688 Z"
             style="fill:#000000;fill-rule:nonzero"
             id="path10" />
          <path
             d="m 1.707,11.523 h 34.184 c 0.945,0 1.711,-0.766 1.711,-1.711 0,-0.75 -0.485,-1.387 -1.157,-1.617 L 19.492,0.566 c -0.445,-0.2 -0.953,-0.2 -1.398,0 L 1.008,8.253 c -0.735,0.332 -1.141,1.133 -0.97,1.918 0.169,0.789 0.863,1.352 1.669,1.352 z"
             style="fill:#000000;fill-rule:nonzero"
             id="path12" />
        </g>
      </g>
    </g>
  </g>
  <path
     id="path926"
     d="m 0.96586226,37.355767 c -0.3738773,-0.185064 -0.737764,-0.633629 -0.8687932,-1.070965 -0.20788542,-0.69386 0.1778911,-1.529225 0.8641267,-1.871191 L 1.3703455,34.209723 H 18.793988 36.217631 l 0.412021,0.215242 c 1.209741,0.631977 1.190211,2.343732 -0.0335,2.93612 l -0.332539,0.160979 -17.481016,-6.1e-5 -17.4810164,-6e-5 z"
     style="fill:#000000;stroke:none;stroke-width:0.0232634;stroke-linecap:round;stroke-linejoin:round;stroke-miterlimit:2.6;stroke-dasharray:none;stroke-opacity:1;paint-order:fill markers stroke" />
</svg>
