<?xml version="1.0" encoding="UTF-8" standalone="no"?>
<svg
   xmlns:dc="http://purl.org/dc/elements/1.1/"
   xmlns:cc="http://creativecommons.org/ns#"
   xmlns:rdf="http://www.w3.org/1999/02/22-rdf-syntax-ns#"
   xmlns:svg="http://www.w3.org/2000/svg"
   xmlns="http://www.w3.org/2000/svg"
   xmlns:sodipodi="http://sodipodi.sourceforge.net/DTD/sodipodi-0.dtd"
   xmlns:inkscape="http://www.inkscape.org/namespaces/inkscape"
   sodipodi:docname="video.svg"
   inkscape:version="1.0 (6e3e5246a0, 2020-05-07)"
   id="svg164"
   version="1.1"
   viewBox="0 0 75.358269 90.826164"
   height="90.826164mm"
   width="75.358269mm">
  <style
     id="style166"></style>
  <defs
     id="defs158">
    <clipPath
       clipPathUnits="userSpaceOnUse"
       id="clipPath38">
      <path
         d="M 0,520 H 520 V 0 H 0 Z"
         id="path36" />
    </clipPath>
  </defs>
  <sodipodi:namedview
     inkscape:window-maximized="0"
     inkscape:window-y="18"
     inkscape:window-x="0"
     inkscape:window-height="1041"
     inkscape:window-width="1916"
     showgrid="false"
     inkscape:document-rotation="0"
     inkscape:current-layer="layer1"
     inkscape:document-units="mm"
     inkscape:cy="254.49712"
     inkscape:cx="-289.01923"
     inkscape:zoom="0.35"
     inkscape:pageshadow="2"
     inkscape:pageopacity="0.0"
     borderopacity="1.0"
     bordercolor="#666666"
     pagecolor="#ffffff"
     id="base" />
  <metadata
     id="metadata161">
    <rdf:RDF>
      <cc:Work
         rdf:about="">
        <dc:format>image/svg+xml</dc:format>
        <dc:type
           rdf:resource="http://purl.org/dc/dcmitype/StillImage" />
        <dc:title></dc:title>
      </cc:Work>
    </rdf:RDF>
  </metadata>
  <g
     transform="translate(-182.303,-80.83097)"
     id="layer1"
     inkscape:groupmode="layer"
     inkscape:label="Layer 1">
    <g
       transform="matrix(0.35277777,0,0,-0.35277777,128.26006,217.91706)"
       id="g32">
      <g
         id="g34"
         clip-path="url(#clipPath38)">
        <g
           id="g40"
           transform="translate(307.1426,280.4565)">
          <path
             d="m 0,0 v 33.811 h -18.131 c 16.021,4.402 27.795,19.063 27.795,36.482 0,20.899 -16.942,37.841 -37.842,37.841 -20.899,0 -37.841,-16.942 -37.841,-37.841 0,-17.419 11.774,-32.08 27.795,-36.482 h -67.839 c 16.021,4.402 27.795,19.063 27.795,36.482 0,20.899 -16.941,37.841 -37.841,37.841 -20.899,0 -37.841,-16.942 -37.841,-37.841 0,-17.419 11.774,-32.08 27.795,-36.482 h -13.818 v -90.028 h 64.82 l 0.181,-0.316 -50.48,-87.433 9.284,-5.36 42.277,73.227 v -72.63 h 10.719 v 71.759 l 41.775,-72.356 9.283,5.36 -50.48,87.433 0.181,0.316 H 0 v 32.711 l 59.664,-34.448 v 92.402 z"
             style="fill:#414142;fill-opacity:1;fill-rule:nonzero;stroke:none"
             id="path42" />
        </g>
      </g>
    </g>
  </g>
</svg>
